<svg xmlns="http://www.w3.org/2000/svg" width="220" height="116" fill="none" viewBox="0 0 220 116"><g clip-path="url(#a)"><path fill="#000" d="M208.231 102.555c1.926 2.042-.727 4.242-2.305 2.52l-5.653-6.092h-4.768v5.04c0 1.084-.947 1.658-1.831 1.658-.947 0-1.831-.574-1.831-1.627v-17.03c0-.99.757-1.66 1.831-1.66h7.042c5.652 0 8.525 3.063 8.525 6.89 0 2.998-1.579 5.358-4.799 6.283zm-12.726-6.665h5.242c3.379 0 4.863-1.659 4.8-3.604-.032-2.105-1.832-3.7-4.8-3.7h-5.242zm-12.999 6.602c1.105 0 1.737.861 1.737 1.658 0 .766-.569 1.531-1.737 1.531H169.97c-1.263 0-2.084-.861-2.084-1.914v-16.52c0-1.021.821-1.882 2.084-1.882h12.536c1.137 0 1.674.733 1.674 1.53 0 .766-.6 1.595-1.674 1.595h-11.02v5.582h10.452c1.073 0 1.642.797 1.642 1.594 0 .766-.537 1.531-1.642 1.531h-10.452v5.295zm-40.433-1.627c-.316-1.244.821-2.01 1.926-2.01.821 0 1.579.415 1.737 1.245.695 2.073 3.6 2.551 5.715 2.551 2.211 0 5.684-.574 5.684-3.093 0-2.01-2.873-2.265-5.684-2.488-4.294-.351-9.189-.957-9.189-5.805 0-4.37 4.926-6.22 8.873-6.22 3.284 0 7.484.958 8.968 4.466.348 1.18-.726 2.073-1.8 2.073-.694 0-1.357-.319-1.61-.893-.758-1.977-3.6-2.233-5.526-2.233-1.705 0-5.115.606-5.115 2.84 0 2.072 2.652 2.327 5.747 2.55 4.389.415 9.125.606 9.125 5.678 0 5.071-5.526 6.474-9.473 6.474-3.284 0-8.304-1.148-9.378-5.135m-6.224-5.326c0 6.283-4.105 10.461-10.263 10.461-6.189 0-10.357-4.178-10.357-10.461s4.168-10.493 10.357-10.493c6.158 0 10.263 4.21 10.263 10.493m-10.263 7.208c3.947 0 6.568-2.902 6.568-7.208 0-4.338-2.621-7.24-6.568-7.24-3.978 0-6.631 2.902-6.631 7.24 0 4.306 2.653 7.208 6.631 7.208m-29.576-2.711v4.018c0 1.117-.947 1.627-1.831 1.627-.916 0-1.8-.542-1.8-1.595V87.023c0-.989.82-1.658 1.831-1.658h6.442c5.242 0 8.305 2.998 8.305 7.495 0 4.305-3.095 7.176-8.4 7.176zm0-11.514v8.356h4.547c3.095 0 4.8-1.594 4.8-4.018 0-2.615-1.674-4.338-4.673-4.338zm-30.842-3.157c.6 0 1.231.35 1.61.957l6.6 10.429 6.567-10.461a1.99 1.99 0 0 1 1.674-.925c.916 0 1.768.638 1.768 1.786v16.872c0 1.116-.979 1.658-1.863 1.658-.915 0-1.8-.542-1.8-1.658V93.274l-4.705 7.432c-.347.637-1.01.925-1.641.925a2.03 2.03 0 0 1-1.706-1.021l-4.641-7.304v10.717c0 1.116-.948 1.658-1.832 1.658-.915 0-1.831-.542-1.831-1.658v-16.84c0-1.117.884-1.818 1.8-1.818m-9.73 10.174c0 6.283-4.105 10.461-10.262 10.461-6.19 0-10.357-4.178-10.357-10.461s4.168-10.493 10.357-10.493c6.157 0 10.262 4.21 10.262 10.493m-10.262 7.208c3.947 0 6.568-2.902 6.568-7.208 0-4.338-2.621-7.24-6.568-7.24-3.979 0-6.631 2.902-6.631 7.24 0 4.306 2.652 7.208 6.63 7.208M20.326 85.046c3.094 0 5.81.83 7.862 3.157 1.705 1.946-.979 3.955-2.62 2.17-1.58-1.723-3.316-2.074-5.274-2.074-4.01 0-6.663 2.807-6.663 6.985 0 4.497 2.716 7.463 6.82 7.463 1.99 0 4.137-1.148 5.337-2.615 1.705-2.074 4.421-.256 2.874 1.913-1.737 2.456-5.179 3.955-8.273 3.955C14.169 106 10 101.726 10 95.284c0-6.156 4.484-10.238 10.326-10.238m23.781-24.594a3.15 3.15 0 0 1-2.68 1.49 3.15 3.15 0 0 1-2.672-1.504L16.5 24.344V68.32h50.198V24.235zm-2.656-7.708 22.683-36.365H19.03zm31.562 18.765c0 1.762-1.414 3.19-3.158 3.19H13.343c-1.744 0-3.158-1.428-3.158-3.19V13.19c0-1.761 1.414-3.189 3.158-3.189h56.512c1.744 0 3.158 1.428 3.158 3.19z"/><path fill="#06f" d="M111.501 10a3.16 3.16 0 0 1 2.864 1.967l23.962 58.32c.668 1.627-.096 3.493-1.706 4.168a3.147 3.147 0 0 1-4.127-1.724l-8.739-21.27H97.709l-9.607 21.367a3.145 3.145 0 0 1-4.18 1.585c-1.589-.728-2.291-2.619-1.57-4.223l26.222-58.32.05-.107A3.16 3.16 0 0 1 111.501 10m-10.924 35.083h20.557l-9.816-23.89zm48.856 26.427V13.19c0-1.762 1.413-3.19 3.157-3.19s3.158 1.428 3.158 3.19v58.32c0 1.76-1.414 3.189-3.158 3.189s-3.157-1.428-3.157-3.19"/><path fill="#000" d="M167.517 71.51V13.19c0-1.762 1.413-3.19 3.157-3.19s3.158 1.428 3.158 3.19v58.32c0 1.76-1.414 3.189-3.158 3.189s-3.157-1.428-3.157-3.19"/><path fill="#000" d="M206.842 68.32c1.744 0 3.158 1.428 3.158 3.19 0 1.76-1.414 3.189-3.158 3.189h-36.168c-1.744 0-3.157-1.428-3.157-3.19 0-1.761 1.413-3.19 3.157-3.19z"/></g><defs><clipPath id="a"><path fill="#fff" d="M0 0h220v116H0z"/></clipPath></defs></svg>